<svg width="472" height="207" viewBox="0 0 472 207" fill="none" xmlns="http://www.w3.org/2000/svg">
<path d="M209.3 154C207.38 154 206.15 153.1 205.61 151.3L187.25 93.7L187.07 92.89C187.07 92.41 187.25 91.99 187.61 91.63C188.03 91.21 188.51 91 189.05 91H200.21C201.05 91 201.74 91.24 202.28 91.72C202.88 92.2 203.27 92.74 203.45 93.34L216.23 134.92L228.92 93.34C229.1 92.74 229.46 92.2 230 91.72C230.6 91.24 231.32 91 232.16 91H243.41C243.89 91 244.31 91.21 244.67 91.63C245.09 91.99 245.3 92.41 245.3 92.89L245.12 93.7L226.76 151.3C226.22 153.1 224.99 154 223.07 154H209.3ZM255.952 154C255.352 154 254.812 153.79 254.332 153.37C253.912 152.89 253.702 152.35 253.702 151.75V93.25C253.702 92.59 253.912 92.05 254.332 91.63C254.812 91.21 255.352 91 255.952 91H297.982C298.642 91 299.182 91.21 299.602 91.63C300.022 92.05 300.232 92.59 300.232 93.25V101.71C300.232 102.31 300.022 102.85 299.602 103.33C299.182 103.75 298.642 103.96 297.982 103.96H269.272V116.11H296.002C296.662 116.11 297.202 116.35 297.622 116.83C298.042 117.25 298.252 117.79 298.252 118.45V126.28C298.252 126.88 298.042 127.42 297.622 127.9C297.202 128.32 296.662 128.53 296.002 128.53H269.272V141.04H298.702C299.362 141.04 299.902 141.25 300.322 141.67C300.742 142.09 300.952 142.63 300.952 143.29V151.75C300.952 152.35 300.742 152.89 300.322 153.37C299.902 153.79 299.362 154 298.702 154H255.952ZM313.433 154C312.833 154 312.293 153.79 311.813 153.37C311.393 152.89 311.183 152.35 311.183 151.75V93.25C311.183 92.59 311.393 92.05 311.813 91.63C312.293 91.21 312.833 91 313.433 91H323.153C324.593 91 325.643 91.66 326.303 92.98L342.143 121.33L357.983 92.98C358.643 91.66 359.693 91 361.133 91H370.763C371.423 91 371.963 91.21 372.383 91.63C372.863 92.05 373.103 92.59 373.103 93.25V151.75C373.103 152.41 372.863 152.95 372.383 153.37C371.963 153.79 371.423 154 370.763 154H360.053C359.393 154 358.823 153.79 358.343 153.37C357.923 152.95 357.713 152.41 357.713 151.75V118L347.633 136.81C346.853 138.19 345.803 138.88 344.483 138.88H339.803C339.023 138.88 338.393 138.7 337.913 138.34C337.433 137.98 337.013 137.47 336.653 136.81L326.483 118V151.75C326.483 152.35 326.273 152.89 325.853 153.37C325.433 153.79 324.893 154 324.233 154H313.433ZM382.114 154C381.634 154 381.184 153.82 380.764 153.46C380.404 153.04 380.224 152.59 380.224 152.11C380.224 151.75 380.254 151.48 380.314 151.3L401.464 93.52C401.644 92.8 402.034 92.2 402.634 91.72C403.234 91.24 404.014 91 404.974 91H418.294C419.254 91 420.034 91.24 420.634 91.72C421.234 92.2 421.624 92.8 421.804 93.52L442.864 151.3L443.044 152.11C443.044 152.59 442.834 153.04 442.414 153.46C442.054 153.82 441.604 154 441.064 154H429.994C428.554 154 427.594 153.37 427.114 152.11L423.604 142.93H399.574L396.154 152.11C395.674 153.37 394.684 154 393.184 154H382.114ZM420.004 129.97L411.634 106.21L403.264 129.97H420.004Z" fill="white"/>
<rect x="51" y="22" width="119" height="136" rx="5" fill="white"/>
<path d="M77.5 142C76.5 142 75.65 141.7 74.95 141.1C74.35 140.4 74.05 139.55 74.05 138.55V40.6C74.05 39.5 74.35 38.65 74.95 38.05C75.65 37.35 76.5 37 77.5 37H139.45C140.45 37 141.25 37.35 141.85 38.05C142.55 38.65 142.9 39.5 142.9 40.6V46.3C142.9 47.3 142.6 48.15 142 48.85C141.4 49.45 140.55 49.75 139.45 49.75H88.45V82.6H136.15C137.15 82.6 137.95 82.95 138.55 83.65C139.25 84.25 139.6 85.1 139.6 86.2V91.75C139.6 92.75 139.25 93.6 138.55 94.3C137.95 94.9 137.15 95.2 136.15 95.2H88.45V129.25H140.65C141.75 129.25 142.6 129.55 143.2 130.15C143.8 130.75 144.1 131.6 144.1 132.7V138.55C144.1 139.55 143.75 140.4 143.05 141.1C142.45 141.7 141.65 142 140.65 142H77.5Z" fill="#3AAFA9"/>
</svg>
